<svg xmlns="http://www.w3.org/2000/svg" x="0px" y="0px"
width="104" height="104"
viewBox="0 0 172 172"
style=" fill:#000000;"><g fill="none" fill-rule="nonzero" stroke="none" stroke-width="1" stroke-linecap="butt" stroke-linejoin="miter" stroke-miterlimit="10" stroke-dasharray="" stroke-dashoffset="0" font-family="none" font-weight="none" font-size="none" text-anchor="none" style="mix-blend-mode: normal"><path d="M0,172v-172h172v172z" fill="#333333"></path><g fill="#f1c40f"><path d="M85.9888,28.66667c-0.56958,0.00195 -1.13569,0.08875 -1.67969,0.25755l-74.53333,22.93333c-2.39844,0.74507 -4.03287,2.96428 -4.03287,5.47578c0,2.5115 1.63443,4.73071 4.03287,5.47578l74.53333,22.93333c1.10162,0.33998 2.28015,0.33998 3.38177,0l67.10911,-20.64896v51.16328c-3.41497,1.98528 -5.73333,5.63994 -5.73333,9.87656c0,6.33533 11.46667,22.93333 11.46667,22.93333c0,0 11.46667,-16.598 11.46667,-22.93333c0,-4.23662 -2.31837,-7.89129 -5.73333,-9.87656v-58.92344c-0.0028,-0.05978 -0.00653,-0.11951 -0.0112,-0.17917c-0.05218,-2.80161 -2.12158,-5.15515 -4.89349,-5.56536l-73.67109,-22.66458c-0.55117,-0.17101 -1.12499,-0.25784 -1.70208,-0.25755zM40.13333,84.15234v36.24766c0,0 22.93333,0 45.86667,17.2c22.93333,-17.2 45.86667,-17.2 45.86667,-17.2v-36.24766l-40.80521,12.55287c-1.64546,0.51026 -3.35866,0.76146 -5.06146,0.76146c-1.7028,0 -3.41599,-0.25119 -5.06146,-0.76146z"></path></g></g></svg>