<svg xmlns="http://www.w3.org/2000/svg" x="0px" y="0px"
width="104" height="104"
viewBox="0 0 172 172"
style=" fill:#000000;">
    <g transform="">
        <g fill="none" fill-rule="nonzero" stroke="none" stroke-width="1" stroke-linecap="butt" stroke-linejoin="miter" stroke-miterlimit="10" stroke-dasharray="" stroke-dashoffset="0" font-family="none" font-weight="none" font-size="none" text-anchor="none" style="mix-blend-mode: normal">
            <path d="M0,172v-172h172v172z" fill="none">
            </path>
            <path d="M86,172c-47.49649,0 -86,-38.50351 -86,-86v0c0,-47.49649 38.50351,-86 86,-86v0c47.49649,0 86,38.50351 86,86v0c0,47.49649 -38.50351,86 -86,86z" fill="#333333">
            </path>
            <g fill="#f1c40f">
                <path d="M27.66058,138.83249c0,0 0,-7.93846 0,-8.99279c0,-11.63894 17.44808,-22.22355 36.50865,-25.94471c0,0 5.82981,-3.16298 4.23798,-8.99279c-5.82981,-7.40096 -7.42163,-15.33943 -7.42163,-15.33943c-1.05433,-0.5375 -2.64615,-1.59183 -3.70048,-2.64615c-1.59183,-2.12932 -3.70048,-8.47596 -3.16298,-13.23077c0.51683,-4.23798 1.57115,-2.64615 2.10865,-3.70048c-4.23798,-9.53029 -2.10865,-21.70673 2.64615,-30.69952c10.04712,-17.46875 31.21635,-12.17644 34.4,-5.82981c20.1149,-3.70048 19.57741,28.05336 16.41443,35.99183c0,0 1.57115,0.5375 1.57115,7.93846c-0.51683,7.93846 -6.86346,12.69327 -6.86346,12.69327c0,2.12932 -2.64615,8.47596 -6.88414,14.30577c-3.70048,7.40096 3.70048,8.99278 3.70048,8.99278c19.06058,3.70048 36.50866,14.2851 36.50866,25.92404c0,1.05433 0,8.99279 0,8.99279c0,7.42163 -28.57019,15.36009 -55.03173,15.36009c-25.92404,0 -55.03173,-2.64615 -55.03173,-14.82259z">
                </path>
            </g>
        </g>
    </g>
</svg>