<svg xmlns="http://www.w3.org/2000/svg" x="0px" y="0px"
width="104" height="104"
viewBox="0 0 172 172"
style=" fill:#000000;"><g fill="none" fill-rule="nonzero" stroke="none" stroke-width="1" stroke-linecap="butt" stroke-linejoin="miter" stroke-miterlimit="10" stroke-dasharray="" stroke-dashoffset="0" font-family="none" font-weight="none" font-size="none" text-anchor="none" style="mix-blend-mode: normal"><path d="M0,172v-172h172v172z" fill="none"></path><path d="M86,172c-47.49649,0 -86,-38.50351 -86,-86v0c0,-47.49649 38.50351,-86 86,-86v0c47.49649,0 86,38.50351 86,86v0c0,47.49649 -38.50351,86 -86,86z" fill="#333333"></path><g fill="#f1c40f"><path d="M67.65333,35.54661c-1.65412,-0.02339 -3.19269,0.84567 -4.02658,2.2744c-0.83389,1.42874 -0.83389,3.19579 0,4.62453c0.83389,1.42874 2.37246,2.2978 4.02658,2.2744v27.52v4.58667v4.58667l-30.03729,40.06167v0.00896c-1.33664,1.63608 -2.06759,3.68338 -2.06938,5.79604c0,5.06629 4.10704,9.17333 9.17333,9.17333h41.28h41.28c5.06629,0 9.17333,-4.10704 9.17333,-9.17333c-0.00178,-2.11267 -0.73273,-4.15996 -2.06938,-5.79604c0,-0.00299 0,-0.00597 0,-0.00896l-30.03729,-40.06167v-4.58667v-4.58667v-27.52c1.65412,0.02339 3.19269,-0.84567 4.02658,-2.2744c0.83389,-1.42874 0.83389,-3.19579 0,-4.62453c-0.83389,-1.42874 -2.37246,-2.2978 -4.02658,-2.2744zM76.82667,44.71994h18.34667v27.52h-18.34667zM81.41333,81.41328c2.53184,0 4.58667,2.05483 4.58667,4.58667c0,2.53184 -2.05483,4.58667 -4.58667,4.58667c-2.53184,0 -4.58667,-2.05483 -4.58667,-4.58667c0,-2.53184 2.05483,-4.58667 4.58667,-4.58667zM97.46667,108.93328c3.79776,0 6.88,3.08224 6.88,6.88c0,3.79776 -3.08224,6.88 -6.88,6.88c-3.79776,0 -6.88,-3.08224 -6.88,-6.88c0,-3.79776 3.08224,-6.88 6.88,-6.88z"></path></g></g></svg>