<svg xmlns="http://www.w3.org/2000/svg" x="0px" y="0px"
width="104" height="104"
viewBox="0 0 172 172"
style=" fill:#000000;"><g transform=""><g fill="none" fill-rule="nonzero" stroke="none" stroke-width="1" stroke-linecap="butt" stroke-linejoin="miter" stroke-miterlimit="10" stroke-dasharray="" stroke-dashoffset="0" font-family="none" font-weight="none" font-size="none" text-anchor="none" style="mix-blend-mode: normal"><path d="M0,172v-172h172v172z" fill="none"></path><path d="M86,172c-47.49649,0 -86,-38.50351 -86,-86v0c0,-47.49649 38.50351,-86 86,-86h0c47.49649,0 86,38.50351 86,86v0c0,47.49649 -38.50351,86 -86,86z" fill="#333333"></path><g id="original-icon" fill="#f1c40f"><path d="M73.12943,48.16c-5.63991,0 -10.26753,4.62762 -10.26753,10.26753v8.24295h-28.48878c-2.13304,0 -3.90455,1.77151 -3.90455,3.90455v33.83946c0,2.13305 1.77151,3.90455 3.90455,3.90455h103.25375c2.13305,0 3.90455,-1.77151 3.90455,-3.90455v-33.83946c0,-2.13304 -1.77151,-3.90455 -3.90455,-3.90455h-28.48878v-8.24295c0,-5.63991 -4.62762,-10.26753 -10.26753,-10.26753zM73.12943,57.41524h25.74113c0.63268,0 1.01229,0.37961 1.01229,1.01229v8.24295h-27.76571v-8.24295c0,-0.63268 0.37961,-1.01229 1.01229,-1.01229zM86,89.80857c2.5488,0 4.62762,2.07881 4.62762,4.62762c0,2.5488 -2.07881,4.62762 -4.62762,4.62762c-2.5488,0 -4.62762,-2.07881 -4.62762,-4.62762c0,-2.5488 2.07881,-4.62762 4.62762,-4.62762zM30.46857,109.04211v32.39333c0,2.13305 1.77151,3.90455 3.90455,3.90455h103.25375c2.13305,0 3.90455,-1.77151 3.90455,-3.90455v-32.39333c0,2.13305 -1.77151,3.90455 -3.90455,3.90455h-103.25375c-2.13304,0 -3.90455,-1.77151 -3.90455,-3.90455z"></path></g><path d="M86,172c-47.49649,0 -86,-38.50351 -86,-86v0c0,-47.49649 38.50351,-86 86,-86v0c47.49649,0 86,38.50351 86,86v0c0,47.49649 -38.50351,86 -86,86z" fill="none"></path><path d="M86,168.56c-45.59663,0 -82.56,-36.96337 -82.56,-82.56v0c0,-45.59663 36.96337,-82.56 82.56,-82.56v0c45.59663,0 82.56,36.96337 82.56,82.56v0c0,45.59663 -36.96337,82.56 -82.56,82.56z" fill="none"></path><path d="M86,172c-47.49649,0 -86,-38.50351 -86,-86v0c0,-47.49649 38.50351,-86 86,-86v0c47.49649,0 86,38.50351 86,86v0c0,47.49649 -38.50351,86 -86,86z" fill="none"></path><path d="M86,168.56c-45.59663,0 -82.56,-36.96337 -82.56,-82.56v0c0,-45.59663 36.96337,-82.56 82.56,-82.56v0c45.59663,0 82.56,36.96337 82.56,82.56v0c0,45.59663 -36.96337,82.56 -82.56,82.56z" fill="none"></path><path d="M86,172c-47.49649,0 -86,-38.50351 -86,-86v0c0,-47.49649 38.50351,-86 86,-86v0c47.49649,0 86,38.50351 86,86v0c0,47.49649 -38.50351,86 -86,86z" fill="none"></path><path d="M86,168.56c-45.59663,0 -82.56,-36.96337 -82.56,-82.56v0c0,-45.59663 36.96337,-82.56 82.56,-82.56v0c45.59663,0 82.56,36.96337 82.56,82.56v0c0,45.59663 -36.96337,82.56 -82.56,82.56z" fill="none"></path></g></g></svg>